{"asset": {"version": "2.0", "generator": "grass_lab export_void.py"}, "scene": 0, "scenes": [{"nodes": [0, 1, 2, 3, 4, 5, 6, 7, 8, 9, 10, 11, 12, 13, 14, 15, 16, 17, 18, 19, 20, 21, 22, 23, 24, 25, 26, 27, 28, 29]}], "nodes": [{"name": "GROUND", "mesh": 0}, {"name": "PILLAR_00", "mesh": 1, "translation": [-3.4718945026397705, 2.081279754638672, 3.6415998935699463]}, {"name": "PILLAR_01", "mesh": 2, "translation": [0.8485279083251953, 0.8662102818489075, 6.010407447814941]}, {"name": "PILLAR_02", "mesh": 3, "translation": [11.250068664550781, 1.3586721420288086, 6.950859069824219]}, {"name": "PILLAR_03", "mesh": 4, "translation": [-12.141023635864258, 1.0070793628692627, -14.276485443115234]}, {"name": "PILLAR_04", "mesh": 5, "translation": [7.813529968261719, 1.106391191482544, 4.362848281860352]}, {"name": "PILLAR_05", "mesh": 6, "translation": [5.126523971557617, 0.14290425181388855, -4.207284927368164]}, {"name": "PILLAR_06", "mesh": 7, "translation": [-15.407855987548828, 0.8874527812004089, -16.850353240966797]}, {"name": "PILLAR_07", "mesh": 8, "translation": [-4.306280612945557, 1.1415066719055176, -12.084455490112305]}, {"name": "PILLAR_08", "mesh": 9, "translation": [-15.167439460754395, 0.7043536305427551, -10.019701957702637]}, {"name": "PILLAR_09", "mesh": 10, "translation": [10.56417465209961, -1.1554279327392578, 15.627059936523438]}, {"name": "PILLAR_10", "mesh": 11, "translation": [20.54852294921875, -0.2766955494880676, 12.52993106842041]}, {"name": "PILLAR_11", "mesh": 12, "translation": [8.379215240478516, 1.3615440130233765, 11.971317291259766]}, {"name": "PILLAR_12", "mesh": 13, "translation": [-7.601397514343262, 0.3942720293998718, -6.356889724731445]}, {"name": "PILLAR_13", "mesh": 14, "translation": [14.361337661743164, -1.2700172662734985, 13.286535263061523]}, {"name": "PILLAR_14", "mesh": 15, "translation": [2.6799347400665283, 2.821730136871338, 10.175267219543457]}, {"name": "PILLAR_15", "mesh": 16, "translation": [2.877924919128418, 0.3287190794944763, 20.371746063232422]}, {"name": "PILLAR_16", "mesh": 17, "translation": [-3.2668333053588867, 1.1617954969406128, -17.465538024902344]}, {"name": "PILLAR_17", "mesh": 18, "translation": [-3.3446154594421387, 2.3175411224365234, 8.817621231079102]}, {"name": "PILLAR_18", "mesh": 19, "translation": [-21.870813369750977, 0.022703828290104866, -9.043895721435547]}, {"name": "PILLAR_19", "mesh": 20, "translation": [0.17677640914916992, 0.5169604420661926, -12.833988189697266]}, {"name": "PILLAR_20", "mesh": 21, "translation": [22.832477569580078, 0.20280705392360687, 6.866006851196289]}, {"name": "PILLAR_21", "mesh": 22, "translation": [12.034957885742188, -0.337698370218277, -0.5939698219299316]}, {"name": "PILLAR_22", "mesh": 23, "translation": [3.761807918548584, 2.450087785720825, -11.200571060180664]}, {"name": "PILLAR_23", "mesh": 24, "translation": [-6.965001583099365, 1.3729151487350464, 5.338655948638916]}, {"name": "PILLAR_24", "mesh": 25, "translation": [11.129860877990723, -0.12945188581943512, -6.264966011047363]}, {"name": "LOG_00", "mesh": 26, "translation": [-0.19999998807907104, -0.08926123380661011, 0.09999999403953552]}, {"name": "LOG_01", "mesh": 27, "translation": [0.20000000298023224, -0.08926123380661011, 0.15000000596046448]}, {"name": "LOG_02", "mesh": 28, "translation": [0.0, -0.11426123976707458, -0.30000001192092896]}, {"name": "LOG_03", "mesh": 29, "translation": [-0.050000011920928955, -0.314261257648468, -0.20000001788139343]}], "meshes": [{"name": "GROUND", "primitives": [{"attributes": {"POSITION": 0, "NORMAL": 1, "COLOR_0": 2}, "indices": 3, "mode": 4}]}, {"name": "PILLAR_00", "primitives": [{"attributes": {"POSITION": 4, "NORMAL": 5, "COLOR_0": 6}, "indices": 7, "mode": 4}]}, {"name": "PILLAR_01", "primitives": [{"attributes": {"POSITION": 8, "NORMAL": 9, "COLOR_0": 10}, "indices": 11, "mode": 4}]}, {"name": "PILLAR_02", "primitives": [{"attributes": {"POSITION": 12, "NORMAL": 13, "COLOR_0": 14}, "indices": 15, "mode": 4}]}, {"name": "PILLAR_03", "primitives": [{"attributes": {"POSITION": 16, "NORMAL": 17, "COLOR_0": 18}, "indices": 19, "mode": 4}]}, {"name": "PILLAR_04", "primitives": [{"attributes": {"POSITION": 20, "NORMAL": 21, "COLOR_0": 22}, "indices": 23, "mode": 4}]}, {"name": "PILLAR_05", "primitives": [{"attributes": {"POSITION": 24, "NORMAL": 25, "COLOR_0": 26}, "indices": 27, "mode": 4}]}, {"name": "PILLAR_06", "primitives": [{"attributes": {"POSITION": 28, "NORMAL": 29, "COLOR_0": 30}, "indices": 31, "mode": 4}]}, {"name": "PILLAR_07", "primitives": [{"attributes": {"POSITION": 32, "NORMAL": 33, "COLOR_0": 34}, "indices": 35, "mode": 4}]}, {"name": "PILLAR_08", "primitives": [{"attributes": {"POSITION": 36, "NORMAL": 37, "COLOR_0": 38}, "indices": 39, "mode": 4}]}, {"name": "PILLAR_09", "primitives": [{"attributes": {"POSITION": 40, "NORMAL": 41, "COLOR_0": 42}, "indices": 43, "mode": 4}]}, {"name": "PILLAR_10", "primitives": [{"attributes": {"POSITION": 44, "NORMAL": 45, "COLOR_0": 46}, "indices": 47, "mode": 4}]}, {"name": "PILLAR_11", "primitives": [{"attributes": {"POSITION": 48, "NORMAL": 49, "COLOR_0": 50}, "indices": 51, "mode": 4}]}, {"name": "PILLAR_12", "primitives": [{"attributes": {"POSITION": 52, "NORMAL": 53, "COLOR_0": 54}, "indices": 55, "mode": 4}]}, {"name": "PILLAR_13", "primitives": [{"attributes": {"POSITION": 56, "NORMAL": 57, "COLOR_0": 58}, "indices": 59, "mode": 4}]}, {"name": "PILLAR_14", "primitives": [{"attributes": {"POSITION": 60, "NORMAL": 61, "COLOR_0": 62}, "indices": 63, "mode": 4}]}, {"name": "PILLAR_15", "primitives": [{"attributes": {"POSITION": 64, "NORMAL": 65, "COLOR_0": 66}, "indices": 67, "mode": 4}]}, {"name": "PILLAR_16", "primitives": [{"attributes": {"POSITION": 68, "NORMAL": 69, "COLOR_0": 70}, "indices": 71, "mode": 4}]}, {"name": "PILLAR_17", "primitives": [{"attributes": {"POSITION": 72, "NORMAL": 73, "COLOR_0": 74}, "indices": 75, "mode": 4}]}, {"name": "PILLAR_18", "primitives": [{"attributes": {"POSITION": 76, "NORMAL": 77, "COLOR_0": 78}, "indices": 79, "mode": 4}]}, {"name": "PILLAR_19", "primitives": [{"attributes": {"POSITION": 80, "NORMAL": 81, "COLOR_0": 82}, "indices": 83, "mode": 4}]}, {"name": "PILLAR_20", "primitives": [{"attributes": {"POSITION": 84, "NORMAL": 85, "COLOR_0": 86}, "indices": 87, "mode": 4}]}, {"name": "PILLAR_21", "primitives": [{"attributes": {"POSITION": 88, "NORMAL": 89, "COLOR_0": 90}, "indices": 91, "mode": 4}]}, {"name": "PILLAR_22", "primitives": [{"attributes": {"POSITION": 92, "NORMAL": 93, "COLOR_0": 94}, "indices": 95, "mode": 4}]}, {"name": "PILLAR_23", "primitives": [{"attributes": {"POSITION": 96, "NORMAL": 97, "COLOR_0": 98}, "indices": 99, "mode": 4}]}, {"name": "PILLAR_24", "primitives": [{"attributes": {"POSITION": 100, "NORMAL": 101, "COLOR_0": 102}, "indices": 103, "mode": 4}]}, {"name": "LOG_00", "primitives": [{"attributes": {"POSITION": 104, "NORMAL": 105, "COLOR_0": 106}, "indices": 107, "mode": 4}]}, {"name": "LOG_01", "primitives": [{"attributes": {"POSITION": 108, "NORMAL": 109, "COLOR_0": 110}, "indices": 111, "mode": 4}]}, {"name": "LOG_02", "primitives": [{"attributes": {"POSITION": 112, "NORMAL": 113, "COLOR_0": 114}, "indices": 115, "mode": 4}]}, {"name": "LOG_03", "primitives": [{"attributes": {"POSITION": 116, "NORMAL": 117, "COLOR_0": 118}, "indices": 119, "mode": 4}]}], "accessors": [{"bufferView": 0, "componentType": 5126, "count": 22801, "type": "VEC3", "min": [-30.0, -2.620300531387329, -30.0], "max": [30.0, 2.6788923740386963, 30.0]}, {"bufferView": 1, "componentType": 5126, "count": 22801, "type": "VEC3", "min": [-0.6273916959762573, 0.7015901803970337, -0.6294544339179993], "max": [0.677571713924408, 1.0, 0.5899980068206787]}, {"bufferView": 2, "componentType": 5126, "count": 22801, "type": "VEC3", "min": [0.2199999988079071, 0.30000001192092896, 0.5199999809265137], "max": [0.25999999046325684, 0.30000001192092896, 0.5199999809265137]}, {"bufferView": 3, "componentType": 5123, "count": 135000, "type": "SCALAR"}, {"bufferView": 4, "componentType": 5126, "count": 36, "type": "VEC3", "min": [-0.6699273586273193, -2.1549999713897705, -0.7236988544464111], "max": [0.6699273586273193, 2.1549997329711914, 0.7236988544464111]}, {"bufferView": 5, "componentType": 5126, "count": 36, "type": "VEC3", "min": [-0.9871362447738647, -1.0, -0.9871363043785095], "max": [0.9871362447738647, 1.0, 0.9871363043785095]}, {"bufferView": 6, "componentType": 5126, "count": 36, "type": "VEC3", "min": [0.20000000298023224, 0.2199999988079071, 0.4000000059604645], "max": [0.30000001192092896, 0.3199999928474426, 0.47999998927116394]}, {"bufferView": 7, "componentType": 5123, "count": 36, "type": "SCALAR"}, {"bufferView": 8, "componentType": 5126, "count": 36, "type": "VEC3", "min": [-0.8628928661346436, -1.0850000381469727, -0.8575911521911621], "max": [0.8628928661346436, 1.0850000381469727, 0.8575911521911621]}, {"bufferView": 9, "componentType": 5126, "count": 36, "type": "VEC3", "min": [-0.7581343650817871, -1.0, -0.7581344246864319], "max": [0.7581343650817871, 1.0, 0.7581344246864319]}, {"bufferView": 10, "componentType": 5126, "count": 36, "type": "VEC3", "min": [0.20000000298023224, 0.2199999988079071, 0.4000000059604645], "max": [0.30000001192092896, 0.3199999928474426, 0.47999998927116394]}, {"bufferView": 11, "componentType": 5123, "count": 36, "type": "SCALAR"}, {"bufferView": 12, "componentType": 5126, "count": 36, "type": "VEC3", "min": [-0.8037309646606445, -0.7350000143051147, -0.8121557235717773], "max": [0.8037309646606445, 0.7350001335144043, 0.8121557235717773]}, {"bufferView": 13, "componentType": 5126, "count": 36, "type": "VEC3", "min": [-0.9297765493392944, -1.0, -0.9297766089439392], "max": [0.9297765493392944, 1.0, 0.9297766089439392]}, {"bufferView": 14, "componentType": 5126, "count": 36, "type": "VEC3", "min": [0.20000000298023224, 0.2199999988079071, 0.4000000059604645], "max": [0.30000001192092896, 0.3199999928474426, 0.47999998927116394]}, {"bufferView": 15, "componentType": 5123, "count": 36, "type": "SCALAR"}, {"bufferView": 16, "componentType": 5126, "count": 36, "type": "VEC3", "min": [-0.7686614990234375, -1.3700000047683716, -0.7753658294677734], "max": [0.7686614990234375, 1.3700001239776611, 0.7753658294677734]}, {"bufferView": 17, "componentType": 5126, "count": 36, "type": "VEC3", "min": [-0.9578223824501038, -1.0, -0.9578225016593933], "max": [0.9578223824501038, 1.0, 0.9578225016593933]}, {"bufferView": 18, "componentType": 5126, "count": 36, "type": "VEC3", "min": [0.20000000298023224, 0.2199999988079071, 0.4000000059604645], "max": [0.30000001192092896, 0.3199999928474426, 0.47999998927116394]}, {"bufferView": 19, "componentType": 5123, "count": 36, "type": "SCALAR"}, {"bufferView": 20, "componentType": 5126, "count": 36, "type": "VEC3", "min": [-0.5064058303833008, -0.925000011920929, -0.5451297760009766], "max": [0.5064058303833008, 0.9249999523162842, 0.5451297760009766]}, {"bufferView": 21, "componentType": 5126, "count": 36, "type": "VEC3", "min": [-0.9995066523551941, -1.0, -0.9995065331459045], "max": [0.9995065331459045, 1.0, 0.9995065331459045]}, {"bufferView": 22, "componentType": 5126, "count": 36, "type": "VEC3", "min": [0.20000000298023224, 0.2199999988079071, 0.4000000059604645], "max": [0.30000001192092896, 0.3199999928474426, 0.47999998927116394]}, {"bufferView": 23, "componentType": 5123, "count": 36, "type": "SCALAR"}, {"bufferView": 24, "componentType": 5126, "count": 36, "type": "VEC3", "min": [-0.699073314666748, -0.8300000429153442, -0.702277660369873], "max": [0.699073314666748, 0.8299999237060547, 0.702277660369873]}, {"bufferView": 25, "componentType": 5126, "count": 36, "type": "VEC3", "min": [-0.7682835459709167, -1.0, -0.7682835459709167], "max": [0.7682835459709167, 1.0, 0.7682835459709167]}, {"bufferView": 26, "componentType": 5126, "count": 36, "type": "VEC3", "min": [0.20000000298023224, 0.2199999988079071, 0.4000000059604645], "max": [0.30000001192092896, 0.3199999928474426, 0.47999998927116394]}, {"bufferView": 27, "componentType": 5123, "count": 36, "type": "SCALAR"}, {"bufferView": 28, "componentType": 5126, "count": 36, "type": "VEC3", "min": [-0.8338298797607422, -0.6050000190734863, -0.8295211791992188], "max": [0.8338298797607422, 0.6050000786781311, 0.8295211791992188]}, {"bufferView": 29, "componentType": 5126, "count": 36, "type": "VEC3", "min": [-0.7880112528800964, -1.0, -0.7880112528800964], "max": [0.7880112528800964, 1.0, 0.7880112528800964]}, {"bufferView": 30, "componentType": 5126, "count": 36, "type": "VEC3", "min": [0.20000000298023224, 0.2199999988079071, 0.4000000059604645], "max": [0.30000001192092896, 0.3199999928474426, 0.47999998927116394]}, {"bufferView": 31, "componentType": 5123, "count": 36, "type": "SCALAR"}, {"bufferView": 32, "componentType": 5126, "count": 36, "type": "VEC3", "min": [-0.8464207649230957, -1.9850000143051147, -0.8497028350830078], "max": [0.8464205265045166, 1.9850001335144043, 0.8497028350830078]}, {"bufferView": 33, "componentType": 5126, "count": 36, "type": "VEC3", "min": [-0.7301622629165649, -1.0, -0.7301623821258545], "max": [0.7301623821258545, 1.0, 0.7301622629165649]}, {"bufferView": 34, "componentType": 5126, "count": 36, "type": "VEC3", "min": [0.20000000298023224, 0.2199999988079071, 0.4000000059604645], "max": [0.30000001192092896, 0.3199999928474426, 0.47999998927116394]}, {"bufferView": 35, "componentType": 5123, "count": 36, "type": "SCALAR"}, {"bufferView": 36, "componentType": 5126, "count": 36, "type": "VEC3", "min": [-0.6208934783935547, -1.7349998950958252, -0.5926446914672852], "max": [0.6208934783935547, 1.7350001335144043, 0.5926446914672852]}, {"bufferView": 37, "componentType": 5126, "count": 36, "type": "VEC3", "min": [-0.9841955900192261, -1.0, -0.9841956496238708], "max": [0.9841955900192261, 1.0, 0.9841956496238708]}, {"bufferView": 38, "componentType": 5126, "count": 36, "type": "VEC3", "min": [0.20000000298023224, 0.2199999988079071, 0.4000000059604645], "max": [0.30000001192092896, 0.3199999928474426, 0.47999998927116394]}, {"bufferView": 39, "componentType": 5123, "count": 36, "type": "SCALAR"}, {"bufferView": 40, "componentType": 5126, "count": 36, "type": "VEC3", "min": [-0.833735466003418, -0.690000057220459, -0.8330440521240234], "max": [0.833735466003418, 0.6899999976158142, 0.8330440521240234]}, {"bufferView": 41, "componentType": 5126, "count": 36, "type": "VEC3", "min": [-0.7408043742179871, -1.0, -0.7408048510551453], "max": [0.7408043742179871, 1.0, 0.7408048510551453]}, {"bufferView": 42, "componentType": 5126, "count": 36, "type": "VEC3", "min": [0.20000000298023224, 0.2199999988079071, 0.4000000059604645], "max": [0.30000001192092896, 0.3199999928474426, 0.47999998927116394]}, {"bufferView": 43, "componentType": 5123, "count": 36, "type": "SCALAR"}, {"bufferView": 44, "componentType": 5126, "count": 36, "type": "VEC3", "min": [-0.7998580932617188, -1.1749999523162842, -0.7961263656616211], "max": [0.7998580932617188, 1.1749999523162842, 0.7961263656616211]}, {"bufferView": 45, "componentType": 5126, "count": 36, "type": "VEC3", "min": [-0.8686316013336182, -1.0, -0.8686316013336182], "max": [0.8686316013336182, 1.0, 0.8686316013336182]}, {"bufferView": 46, "componentType": 5126, "count": 36, "type": "VEC3", "min": [0.20000000298023224, 0.2199999988079071, 0.4000000059604645], "max": [0.30000001192092896, 0.3199999928474426, 0.47999998927116394]}, {"bufferView": 47, "componentType": 5123, "count": 36, "type": "SCALAR"}, {"bufferView": 48, "componentType": 5126, "count": 36, "type": "VEC3", "min": [-0.6644344329833984, -1.5700000524520874, -0.6684494018554688], "max": [0.6644344329833984, 1.5700000524520874, 0.6684494018554688]}, {"bufferView": 49, "componentType": 5126, "count": 36, "type": "VEC3", "min": [-0.9835714101791382, -1.0, -0.9835715293884277], "max": [0.9835715889930725, 1.0, 0.9835715293884277]}, {"bufferView": 50, "componentType": 5126, "count": 36, "type": "VEC3", "min": [0.20000000298023224, 0.2199999988079071, 0.4000000059604645], "max": [0.30000001192092896, 0.3199999928474426, 0.47999998927116394]}, {"bufferView": 51, "componentType": 5123, "count": 36, "type": "SCALAR"}, {"bufferView": 52, "componentType": 5126, "count": 36, "type": "VEC3", "min": [-0.6767034530639648, -0.6399999856948853, -0.7023630142211914], "max": [0.6767034530639648, 0.6399999260902405, 0.7023630142211914]}, {"bufferView": 53, "componentType": 5126, "count": 36, "type": "VEC3", "min": [-0.8571673631668091, -1.0, -0.8571674227714539], "max": [0.8571673631668091, 1.0, 0.8571674227714539]}, {"bufferView": 54, "componentType": 5126, "count": 36, "type": "VEC3", "min": [0.20000000298023224, 0.2199999988079071, 0.4000000059604645], "max": [0.30000001192092896, 0.3199999928474426, 0.47999998927116394]}, {"bufferView": 55, "componentType": 5123, "count": 36, "type": "SCALAR"}, {"bufferView": 56, "componentType": 5126, "count": 36, "type": "VEC3", "min": [-0.6665315628051758, -0.6000000238418579, -0.6966638565063477], "max": [0.6665315628051758, 0.6000000238418579, 0.6966638565063477]}, {"bufferView": 57, "componentType": 5126, "count": 36, "type": "VEC3", "min": [-0.9914448261260986, -1.0, -0.9914448857307434], "max": [0.9914448261260986, 1.0, 0.9914448857307434]}, {"bufferView": 58, "componentType": 5126, "count": 36, "type": "VEC3", "min": [0.20000000298023224, 0.2199999988079071, 0.4000000059604645], "max": [0.30000001192092896, 0.3199999928474426, 0.47999998927116394]}, {"bufferView": 59, "componentType": 5123, "count": 36, "type": "SCALAR"}, {"bufferView": 60, "componentType": 5126, "count": 36, "type": "VEC3", "min": [-0.8744577169418335, -2.450000047683716, -0.8744573593139648], "max": [0.874457597732544, 2.450000286102295, 0.8744573593139648]}, {"bufferView": 61, "componentType": 5126, "count": 36, "type": "VEC3", "min": [-0.7569950819015503, -1.0, -0.7569953799247742], "max": [0.7569951415061951, 1.0, 0.7569953203201294]}, {"bufferView": 62, "componentType": 5126, "count": 36, "type": "VEC3", "min": [0.20000000298023224, 0.2199999988079071, 0.4000000059604645], "max": [0.30000001192092896, 0.3199999928474426, 0.47999998927116394]}, {"bufferView": 63, "componentType": 5123, "count": 36, "type": "SCALAR"}, {"bufferView": 64, "componentType": 5126, "count": 36, "type": "VEC3", "min": [-0.7220554351806641, -0.6349999904632568, -0.6840457916259766], "max": [0.7220554351806641, 0.6349999904632568, 0.6840457916259766]}, {"bufferView": 65, "componentType": 5126, "count": 36, "type": "VEC3", "min": [-0.9135457277297974, -1.0, -0.9135453701019287], "max": [0.9135457277297974, 1.0, 0.9135453701019287]}, {"bufferView": 66, "componentType": 5126, "count": 36, "type": "VEC3", "min": [0.20000000298023224, 0.2199999988079071, 0.4000000059604645], "max": [0.30000001192092896, 0.3199999928474426, 0.47999998927116394]}, {"bufferView": 67, "componentType": 5123, "count": 36, "type": "SCALAR"}, {"bufferView": 68, "componentType": 5126, "count": 36, "type": "VEC3", "min": [-0.6374406814575195, -0.7950000166893005, -0.6977043151855469], "max": [0.6374406814575195, 0.7949999570846558, 0.6977043151855469]}, {"bufferView": 69, "componentType": 5126, "count": 36, "type": "VEC3", "min": [-0.9914448857307434, -1.0, -0.991445004940033], "max": [0.9914448857307434, 1.0, 0.991445004940033]}, {"bufferView": 70, "componentType": 5126, "count": 36, "type": "VEC3", "min": [0.20000000298023224, 0.2199999988079071, 0.4000000059604645], "max": [0.30000001192092896, 0.3199999928474426, 0.47999998927116394]}, {"bufferView": 71, "componentType": 5123, "count": 36, "type": "SCALAR"}, {"bufferView": 72, "componentType": 5126, "count": 36, "type": "VEC3", "min": [-0.7348842620849609, -1.4600000381469727, -0.7851886749267578], "max": [0.7348842620849609, 1.4600000381469727, 0.7851886749267578]}, {"bufferView": 73, "componentType": 5126, "count": 36, "type": "VEC3", "min": [-0.9477684497833252, -1.0, -0.9477685689926147], "max": [0.9477684497833252, 1.0, 0.9477685689926147]}, {"bufferView": 74, "componentType": 5126, "count": 36, "type": "VEC3", "min": [0.20000000298023224, 0.2199999988079071, 0.4000000059604645], "max": [0.30000001192092896, 0.3199999928474426, 0.47999998927116394]}, {"bufferView": 75, "componentType": 5123, "count": 36, "type": "SCALAR"}, {"bufferView": 76, "componentType": 5126, "count": 36, "type": "VEC3", "min": [-0.7167758941650391, -0.6899999976158142, -0.7390604019165039], "max": [0.7167758941650391, 0.6899999976158142, 0.7390604019165039]}, {"bufferView": 77, "componentType": 5126, "count": 36, "type": "VEC3", "min": [-0.9284859299659729, -1.0, -0.9284859299659729], "max": [0.9284859299659729, 1.0, 0.9284859299659729]}, {"bufferView": 78, "componentType": 5126, "count": 36, "type": "VEC3", "min": [0.20000000298023224, 0.2199999988079071, 0.4000000059604645], "max": [0.30000001192092896, 0.3199999928474426, 0.47999998927116394]}, {"bufferView": 79, "componentType": 5123, "count": 36, "type": "SCALAR"}, {"bufferView": 80, "componentType": 5126, "count": 36, "type": "VEC3", "min": [-0.678941011428833, -1.1699999570846558, -0.6330184936523438], "max": [0.678941011428833, 1.1700000762939453, 0.6330184936523438]}, {"bufferView": 81, "componentType": 5126, "count": 36, "type": "VEC3", "min": [-0.9969173073768616, -1.0, -0.9969172477722168], "max": [0.9969173073768616, 1.0, 0.9969172477722168]}, {"bufferView": 82, "componentType": 5126, "count": 36, "type": "VEC3", "min": [0.20000000298023224, 0.2199999988079071, 0.4000000059604645], "max": [0.30000001192092896, 0.3199999928474426, 0.47999998927116394]}, {"bufferView": 83, "componentType": 5123, "count": 36, "type": "SCALAR"}, {"bufferView": 84, "componentType": 5126, "count": 36, "type": "VEC3", "min": [-0.6853275299072266, -0.949999988079071, -0.6814565658569336], "max": [0.6853275299072266, 0.9499999284744263, 0.6814565658569336]}, {"bufferView": 85, "componentType": 5126, "count": 36, "type": "VEC3", "min": [-0.9788674116134644, -1.0, -0.9788672924041748], "max": [0.9788674116134644, 1.0, 0.9788672924041748]}, {"bufferView": 86, "componentType": 5126, "count": 36, "type": "VEC3", "min": [0.20000000298023224, 0.2199999988079071, 0.4000000059604645], "max": [0.30000001192092896, 0.3199999928474426, 0.47999998927116394]}, {"bufferView": 87, "componentType": 5123, "count": 36, "type": "SCALAR"}, {"bufferView": 88, "componentType": 5126, "count": 36, "type": "VEC3", "min": [-0.7735385894775391, -0.6000000238418579, -0.726296067237854], "max": [0.7735385894775391, 0.6000000238418579, 0.726296067237854]}, {"bufferView": 89, "componentType": 5126, "count": 36, "type": "VEC3", "min": [-0.9912155866622925, -1.0, -0.9912155270576477], "max": [0.9912155866622925, 1.0, 0.9912155270576477]}, {"bufferView": 90, "componentType": 5126, "count": 36, "type": "VEC3", "min": [0.20000000298023224, 0.2199999988079071, 0.4000000059604645], "max": [0.30000001192092896, 0.3199999928474426, 0.47999998927116394]}, {"bufferView": 91, "componentType": 5123, "count": 36, "type": "SCALAR"}, {"bufferView": 92, "componentType": 5126, "count": 36, "type": "VEC3", "min": [-0.7492003440856934, -2.4049999713897705, -0.762934684753418], "max": [0.7492003440856934, 2.4049999713897705, 0.762934684753418]}, {"bufferView": 93, "componentType": 5126, "count": 36, "type": "VEC3", "min": [-0.8309844136238098, -1.0, -0.8309844732284546], "max": [0.8309844136238098, 1.0, 0.8309844732284546]}, {"bufferView": 94, "componentType": 5126, "count": 36, "type": "VEC3", "min": [0.20000000298023224, 0.2199999988079071, 0.4000000059604645], "max": [0.30000001192092896, 0.3199999928474426, 0.47999998927116394]}, {"bufferView": 95, "componentType": 5123, "count": 36, "type": "SCALAR"}, {"bufferView": 96, "componentType": 5126, "count": 36, "type": "VEC3", "min": [-0.6700267791748047, -1.75, -0.674311637878418], "max": [0.6700267791748047, 1.7500001192092896, 0.674311637878418]}, {"bufferView": 97, "componentType": 5126, "count": 36, "type": "VEC3", "min": [-0.990983247756958, -1.0, -0.990983247756958], "max": [0.990983247756958, 1.0, 0.990983247756958]}, {"bufferView": 98, "componentType": 5126, "count": 36, "type": "VEC3", "min": [0.20000000298023224, 0.2199999988079071, 0.4000000059604645], "max": [0.30000001192092896, 0.3199999928474426, 0.47999998927116394]}, {"bufferView": 99, "componentType": 5123, "count": 36, "type": "SCALAR"}, {"bufferView": 100, "componentType": 5126, "count": 36, "type": "VEC3", "min": [-0.8289966583251953, -2.0350000858306885, -0.8318843841552734], "max": [0.8289966583251953, 2.0350000858306885, 0.8318843841552734]}, {"bufferView": 101, "componentType": 5126, "count": 36, "type": "VEC3", "min": [-0.7289688587188721, -1.0, -0.728968620300293], "max": [0.7289688587188721, 1.0, 0.728968620300293]}, {"bufferView": 102, "componentType": 5126, "count": 36, "type": "VEC3", "min": [0.20000000298023224, 0.2199999988079071, 0.4000000059604645], "max": [0.30000001192092896, 0.3199999928474426, 0.47999998927116394]}, {"bufferView": 103, "componentType": 5123, "count": 36, "type": "SCALAR"}, {"bufferView": 104, "componentType": 5126, "count": 36, "type": "VEC3", "min": [-0.7948544025421143, -0.4747387766838074, -0.5185233950614929], "max": [0.7948544025421143, 0.4747387766838074, 0.5185233354568481]}, {"bufferView": 105, "componentType": 5126, "count": 36, "type": "VEC3", "min": [-0.7872501611709595, -0.9067162871360779, -0.8682431578636169], "max": [0.7872501611709595, 0.9067164063453674, 0.8682431578636169]}, {"bufferView": 106, "componentType": 5126, "count": 36, "type": "VEC3", "min": [0.1599999964237213, 0.11999999731779099, 0.20000000298023224], "max": [0.1599999964237213, 0.11999999731779099, 0.20000000298023224]}, {"bufferView": 107, "componentType": 5123, "count": 36, "type": "SCALAR"}, {"bufferView": 108, "componentType": 5126, "count": 36, "type": "VEC3", "min": [-0.7053546905517578, -0.4733870029449463, -0.5675163269042969], "max": [0.7053546905517578, 0.4733870029449463, 0.5675163269042969]}, {"bufferView": 109, "componentType": 5126, "count": 36, "type": "VEC3", "min": [-0.7155416011810303, -0.8944271802902222, -0.7999998331069946], "max": [0.7155417203903198, 0.8944272994995117, 0.7999997735023499]}, {"bufferView": 110, "componentType": 5126, "count": 36, "type": "VEC3", "min": [0.1599999964237213, 0.11999999731779099, 0.20000000298023224], "max": [0.1599999964237213, 0.11999999731779099, 0.20000000298023224]}, {"bufferView": 111, "componentType": 5123, "count": 36, "type": "SCALAR"}, {"bufferView": 112, "componentType": 5126, "count": 36, "type": "VEC3", "min": [-0.2157953679561615, -0.44858428835868835, -0.7638627886772156], "max": [0.2157953679561615, 0.44858428835868835, 0.7638627290725708]}, {"bufferView": 113, "componentType": 5126, "count": 36, "type": "VEC3", "min": [-0.9899495244026184, -0.8962215185165405, -0.8872140645980835], "max": [0.9899495244026184, 0.8962215185165405, 0.8872140645980835]}, {"bufferView": 114, "componentType": 5126, "count": 36, "type": "VEC3", "min": [0.1599999964237213, 0.11999999731779099, 0.20000000298023224], "max": [0.1599999964237213, 0.11999999731779099, 0.20000000298023224]}, {"bufferView": 115, "componentType": 5123, "count": 36, "type": "SCALAR"}, {"bufferView": 116, "componentType": 5126, "count": 36, "type": "VEC3", "min": [-1.0024757385253906, -0.2094859480857849, -0.5055017471313477], "max": [1.002475619316101, 0.2094859778881073, 0.5055017471313477]}, {"bufferView": 117, "componentType": 5126, "count": 36, "type": "VEC3", "min": [-0.9173287749290466, -0.9953271150588989, -0.9216354489326477], "max": [0.9173287749290466, 0.9953271150588989, 0.9216353893280029]}, {"bufferView": 118, "componentType": 5126, "count": 36, "type": "VEC3", "min": [0.1599999964237213, 0.11999999731779099, 0.20000000298023224], "max": [0.1599999964237213, 0.11999999731779099, 0.20000000298023224]}, {"bufferView": 119, "componentType": 5123, "count": 36, "type": "SCALAR"}], "bufferViews": [{"buffer": 0, "byteOffset": 0, "byteLength": 273612}, {"buffer": 0, "byteOffset": 273612, "byteLength": 273612}, {"buffer": 0, "byteOffset": 547224, "byteLength": 273612}, {"buffer": 0, "byteOffset": 820836, "byteLength": 270000}, {"buffer": 0, "byteOffset": 1090836, "byteLength": 432}, {"buffer": 0, "byteOffset": 1091268, "byteLength": 432}, {"buffer": 0, "byteOffset": 1091700, "byteLength": 432}, {"buffer": 0, "byteOffset": 1092132, "byteLength": 72}, {"buffer": 0, "byteOffset": 1092204, "byteLength": 432}, {"buffer": 0, "byteOffset": 1092636, "byteLength": 432}, {"buffer": 0, "byteOffset": 1093068, "byteLength": 432}, {"buffer": 0, "byteOffset": 1093500, "byteLength": 72}, {"buffer": 0, "byteOffset": 1093572, "byteLength": 432}, {"buffer": 0, "byteOffset": 1094004, "byteLength": 432}, {"buffer": 0, "byteOffset": 1094436, "byteLength": 432}, {"buffer": 0, "byteOffset": 1094868, "byteLength": 72}, {"buffer": 0, "byteOffset": 1094940, "byteLength": 432}, {"buffer": 0, "byteOffset": 1095372, "byteLength": 432}, {"buffer": 0, "byteOffset": 1095804, "byteLength": 432}, {"buffer": 0, "byteOffset": 1096236, "byteLength": 72}, {"buffer": 0, "byteOffset": 1096308, "byteLength": 432}, {"buffer": 0, "byteOffset": 1096740, "byteLength": 432}, {"buffer": 0, "byteOffset": 1097172, "byteLength": 432}, {"buffer": 0, "byteOffset": 1097604, "byteLength": 72}, {"buffer": 0, "byteOffset": 1097676, "byteLength": 432}, {"buffer": 0, "byteOffset": 1098108, "byteLength": 432}, {"buffer": 0, "byteOffset": 1098540, "byteLength": 432}, {"buffer": 0, "byteOffset": 1098972, "byteLength": 72}, {"buffer": 0, "byteOffset": 1099044, "byteLength": 432}, {"buffer": 0, "byteOffset": 1099476, "byteLength": 432}, {"buffer": 0, "byteOffset": 1099908, "byteLength": 432}, {"buffer": 0, "byteOffset": 1100340, "byteLength": 72}, {"buffer": 0, "byteOffset": 1100412, "byteLength": 432}, {"buffer": 0, "byteOffset": 1100844, "byteLength": 432}, {"buffer": 0, "byteOffset": 1101276, "byteLength": 432}, {"buffer": 0, "byteOffset": 1101708, "byteLength": 72}, {"buffer": 0, "byteOffset": 1101780, "byteLength": 432}, {"buffer": 0, "byteOffset": 1102212, "byteLength": 432}, {"buffer": 0, "byteOffset": 1102644, "byteLength": 432}, {"buffer": 0, "byteOffset": 1103076, "byteLength": 72}, {"buffer": 0, "byteOffset": 1103148, "byteLength": 432}, {"buffer": 0, "byteOffset": 1103580, "byteLength": 432}, {"buffer": 0, "byteOffset": 1104012, "byteLength": 432}, {"buffer": 0, "byteOffset": 1104444, "byteLength": 72}, {"buffer": 0, "byteOffset": 1104516, "byteLength": 432}, {"buffer": 0, "byteOffset": 1104948, "byteLength": 432}, {"buffer": 0, "byteOffset": 1105380, "byteLength": 432}, {"buffer": 0, "byteOffset": 1105812, "byteLength": 72}, {"buffer": 0, "byteOffset": 1105884, "byteLength": 432}, {"buffer": 0, "byteOffset": 1106316, "byteLength": 432}, {"buffer": 0, "byteOffset": 1106748, "byteLength": 432}, {"buffer": 0, "byteOffset": 1107180, "byteLength": 72}, {"buffer": 0, "byteOffset": 1107252, "byteLength": 432}, {"buffer": 0, "byteOffset": 1107684, "byteLength": 432}, {"buffer": 0, "byteOffset": 1108116, "byteLength": 432}, {"buffer": 0, "byteOffset": 1108548, "byteLength": 72}, {"buffer": 0, "byteOffset": 1108620, "byteLength": 432}, {"buffer": 0, "byteOffset": 1109052, "byteLength": 432}, {"buffer": 0, "byteOffset": 1109484, "byteLength": 432}, {"buffer": 0, "byteOffset": 1109916, "byteLength": 72}, {"buffer": 0, "byteOffset": 1109988, "byteLength": 432}, {"buffer": 0, "byteOffset": 1110420, "byteLength": 432}, {"buffer": 0, "byteOffset": 1110852, "byteLength": 432}, {"buffer": 0, "byteOffset": 1111284, "byteLength": 72}, {"buffer": 0, "byteOffset": 1111356, "byteLength": 432}, {"buffer": 0, "byteOffset": 1111788, "byteLength": 432}, {"buffer": 0, "byteOffset": 1112220, "byteLength": 432}, {"buffer": 0, "byteOffset": 1112652, "byteLength": 72}, {"buffer": 0, "byteOffset": 1112724, "byteLength": 432}, {"buffer": 0, "byteOffset": 1113156, "byteLength": 432}, {"buffer": 0, "byteOffset": 1113588, "byteLength": 432}, {"buffer": 0, "byteOffset": 1114020, "byteLength": 72}, {"buffer": 0, "byteOffset": 1114092, "byteLength": 432}, {"buffer": 0, "byteOffset": 1114524, "byteLength": 432}, {"buffer": 0, "byteOffset": 1114956, "byteLength": 432}, {"buffer": 0, "byteOffset": 1115388, "byteLength": 72}, {"buffer": 0, "byteOffset": 1115460, "byteLength": 432}, {"buffer": 0, "byteOffset": 1115892, "byteLength": 432}, {"buffer": 0, "byteOffset": 1116324, "byteLength": 432}, {"buffer": 0, "byteOffset": 1116756, "byteLength": 72}, {"buffer": 0, "byteOffset": 1116828, "byteLength": 432}, {"buffer": 0, "byteOffset": 1117260, "byteLength": 432}, {"buffer": 0, "byteOffset": 1117692, "byteLength": 432}, {"buffer": 0, "byteOffset": 1118124, "byteLength": 72}, {"buffer": 0, "byteOffset": 1118196, "byteLength": 432}, {"buffer": 0, "byteOffset": 1118628, "byteLength": 432}, {"buffer": 0, "byteOffset": 1119060, "byteLength": 432}, {"buffer": 0, "byteOffset": 1119492, "byteLength": 72}, {"buffer": 0, "byteOffset": 1119564, "byteLength": 432}, {"buffer": 0, "byteOffset": 1119996, "byteLength": 432}, {"buffer": 0, "byteOffset": 1120428, "byteLength": 432}, {"buffer": 0, "byteOffset": 1120860, "byteLength": 72}, {"buffer": 0, "byteOffset": 1120932, "byteLength": 432}, {"buffer": 0, "byteOffset": 1121364, "byteLength": 432}, {"buffer": 0, "byteOffset": 1121796, "byteLength": 432}, {"buffer": 0, "byteOffset": 1122228, "byteLength": 72}, {"buffer": 0, "byteOffset": 1122300, "byteLength": 432}, {"buffer": 0, "byteOffset": 1122732, "byteLength": 432}, {"buffer": 0, "byteOffset": 1123164, "byteLength": 432}, {"buffer": 0, "byteOffset": 1123596, "byteLength": 72}, {"buffer": 0, "byteOffset": 1123668, "byteLength": 432}, {"buffer": 0, "byteOffset": 1124100, "byteLength": 432}, {"buffer": 0, "byteOffset": 1124532, "byteLength": 432}, {"buffer": 0, "byteOffset": 1124964, "byteLength": 72}, {"buffer": 0, "byteOffset": 1125036, "byteLength": 432}, {"buffer": 0, "byteOffset": 1125468, "byteLength": 432}, {"buffer": 0, "byteOffset": 1125900, "byteLength": 432}, {"buffer": 0, "byteOffset": 1126332, "byteLength": 72}, {"buffer": 0, "byteOffset": 1126404, "byteLength": 432}, {"buffer": 0, "byteOffset": 1126836, "byteLength": 432}, {"buffer": 0, "byteOffset": 1127268, "byteLength": 432}, {"buffer": 0, "byteOffset": 1127700, "byteLength": 72}, {"buffer": 0, "byteOffset": 1127772, "byteLength": 432}, {"buffer": 0, "byteOffset": 1128204, "byteLength": 432}, {"buffer": 0, "byteOffset": 1128636, "byteLength": 432}, {"buffer": 0, "byteOffset": 1129068, "byteLength": 72}, {"buffer": 0, "byteOffset": 1129140, "byteLength": 432}, {"buffer": 0, "byteOffset": 1129572, "byteLength": 432}, {"buffer": 0, "byteOffset": 1130004, "byteLength": 432}, {"buffer": 0, "byteOffset": 1130436, "byteLength": 72}], "buffers": [{"byteLength": 1130508, "uri": "grass_lab.bin"}]}