{"asset": {"version": "2.0", "generator": "void-touch make-plants.py"}, "scene": 0, "scenes": [{"nodes": [0, 1, 2, 3, 4, 5, 6, 7, 8, 9, 10]}], "nodes": [{"name": "LEAF_00", "mesh": 0, "translation": [-13.647160876900369, 0.32975484132766725, -4.737615433949869], "rotation": [0.0, 0.17364817766693033, 0.0, 0.984807753012208]}, {"name": "TRUNK_00", "mesh": 1, "translation": [-13.647160876900369, 0.32975484132766725, -4.737615433949869], "rotation": [0.0, 0.17364817766693033, 0.0, 0.984807753012208]}, {"name": "LEAF_01", "mesh": 2, "translation": [-1.1313708498984758, -0.22509622871875762, -10.182337649086286], "rotation": [0.0, 0.9396926207859083, 0.0, 0.3420201433256688]}, {"name": "TRUNK_01", "mesh": 3, "translation": [-1.1313708498984758, -0.22509622871875762, -10.182337649086286], "rotation": [0.0, 0.9396926207859083, 0.0, 0.3420201433256688]}, {"name": "LEAF_02", "mesh": 0, "translation": [15.414927829866738, 0.2929982662200928, 6.505382386916237], "rotation": [0.0, 0.8191520442889917, 0.0, -0.5735764363510462]}, {"name": "TRUNK_02", "mesh": 1, "translation": [15.414927829866738, 0.2929982662200928, 6.505382386916237], "rotation": [0.0, 0.8191520442889917, 0.0, -0.5735764363510462]}, {"name": "LEAF_03", "mesh": 4, "translation": [-7.636753236814714, -0.35445918440818786, 1.9798989873223332], "rotation": [0.0, 0.0, 0.0, 1.0]}, {"name": "LEAF_04", "mesh": 5, "translation": [7.919595949289333, 0.1183439016342163, -1.4142135623730951], "rotation": [0.0, 0.573576436351046, 0.0, 0.8191520442889918]}, {"name": "LEAF_05", "mesh": 4, "translation": [-9.82878425849301, 0.05118687897920608, -6.434671708797583], "rotation": [0.0, 0.984807753012208, 0.0, -0.1736481776669303]}, {"name": "LEAF_06", "mesh": 5, "translation": [4.1012193308819755, 1.2258448123931884, 11.45512985522207], "rotation": [0.0, 0.49999999999999994, 0.0, -0.8660254037844387]}, {"name": "LEAF_07", "mesh": 4, "translation": [11.030865786510143, 1.089220356941223, 5.939696961967], "rotation": [0.0, 0.8660254037844386, 0.0, 0.5000000000000001]}], "meshes": [{"name": "LEAF_broadleaf_orange", "primitives": [{"attributes": {"POSITION": 0, "NORMAL": 1, "COLOR_0": 2}, "indices": 3, "mode": 4}]}, {"name": "TRUNK_broadleaf_orange", "primitives": [{"attributes": {"POSITION": 4, "NORMAL": 5, "COLOR_0": 6}, "indices": 7, "mode": 4}]}, {"name": "LEAF_broadleaf_red", "primitives": [{"attributes": {"POSITION": 8, "NORMAL": 9, "COLOR_0": 10}, "indices": 11, "mode": 4}]}, {"name": "TRUNK_broadleaf_red", "primitives": [{"attributes": {"POSITION": 12, "NORMAL": 13, "COLOR_0": 14}, "indices": 15, "mode": 4}]}, {"name": "LEAF_bush_round", "primitives": [{"attributes": {"POSITION": 16, "NORMAL": 17, "COLOR_0": 18}, "indices": 19, "mode": 4}]}, {"name": "LEAF_bush_flower", "primitives": [{"attributes": {"POSITION": 20, "NORMAL": 21, "COLOR_0": 22}, "indices": 23, "mode": 4}]}], "accessors": [{"bufferView": 0, "componentType": 5126, "count": 6297, "type": "VEC3", "min": [-3.2049052715301514, 1.363095760345459, -2.6052706241607666], "max": [3.2049052715301514, 6.599999904632568, 2.6052706241607666]}, {"bufferView": 1, "componentType": 5126, "count": 6297, "type": "VEC3", "min": [-0.9990228414535522, -0.9998134970664978, -0.9993193745613098], "max": [0.99951171875, 0.9982742667198181, 0.9999063611030579]}, {"bufferView": 2, "componentType": 5126, "count": 6297, "type": "VEC3", "min": [0.0, 0.0, 0.0], "max": [1.0, 0.0, 0.0]}, {"bufferView": 3, "componentType": 5123, "count": 6297, "type": "SCALAR"}, {"bufferView": 4, "componentType": 5126, "count": 627, "type": "VEC3", "min": [-1.3092108964920044, 0.0, -1.0669828653335571], "max": [1.1625231504440308, 3.7371766567230225, 1.0809075832366943]}, {"bufferView": 5, "componentType": 5126, "count": 627, "type": "VEC3", "min": [-0.9974543452262878, -0.9953591823577881, -0.9960008859634399], "max": [0.9945892095565796, 0.9939907193183899, 0.9965397715568542]}, {"bufferView": 6, "componentType": 5126, "count": 627, "type": "VEC3", "min": [0.0, 0.0, 0.0], "max": [0.0, 0.0, 0.0]}, {"bufferView": 7, "componentType": 5123, "count": 627, "type": "SCALAR"}, {"bufferView": 8, "componentType": 5126, "count": 6555, "type": "VEC3", "min": [-3.1919867992401123, 1.0423994064331055, -2.2553956508636475], "max": [3.1919867992401123, 6.0, 2.2553956508636475]}, {"bufferView": 9, "componentType": 5126, "count": 6555, "type": "VEC3", "min": [-0.9983084797859192, -0.9992311596870422, -0.9993235468864441], "max": [0.9999337792396545, 0.9991885423660278, 0.9998062252998352]}, {"bufferView": 10, "componentType": 5126, "count": 6555, "type": "VEC3", "min": [0.0, 0.0, 0.0], "max": [1.0, 0.0, 0.0]}, {"bufferView": 11, "componentType": 5123, "count": 6555, "type": "SCALAR"}, {"bufferView": 12, "componentType": 5126, "count": 825, "type": "VEC3", "min": [-1.8704311847686768, 0.0, -1.0199592113494873], "max": [2.296773672103882, 3.3588032722473145, 1.2115875482559204]}, {"bufferView": 13, "componentType": 5126, "count": 825, "type": "VEC3", "min": [-0.9950064420700073, -0.999522864818573, -0.997901976108551], "max": [0.9995735883712769, 0.9814971685409546, 0.9996927380561829]}, {"bufferView": 14, "componentType": 5126, "count": 825, "type": "VEC3", "min": [0.0, 0.0, 0.0], "max": [0.0, 0.0, 0.0]}, {"bufferView": 15, "componentType": 5123, "count": 825, "type": "SCALAR"}, {"bufferView": 16, "componentType": 5126, "count": 7482, "type": "VEC3", "min": [-1.1272940635681152, 0.0, -1.024857997894287], "max": [1.1272940635681152, 1.5, 1.024857997894287]}, {"bufferView": 17, "componentType": 5126, "count": 7482, "type": "VEC3", "min": [-0.9999630451202393, -0.9999935626983643, -0.9994115829467773], "max": [0.9998113512992859, 0.9993082880973816, 0.998344361782074]}, {"bufferView": 18, "componentType": 5126, "count": 7482, "type": "VEC3", "min": [0.0, 0.0, 0.0], "max": [1.0, 0.0, 0.0]}, {"bufferView": 19, "componentType": 5123, "count": 7482, "type": "SCALAR"}, {"bufferView": 20, "componentType": 5126, "count": 7947, "type": "VEC3", "min": [-1.3331974744796753, 0.0, -1.1739137172698975], "max": [1.3331974744796753, 1.399999976158142, 1.1739137172698975]}, {"bufferView": 21, "componentType": 5126, "count": 7947, "type": "VEC3", "min": [-0.9990866780281067, -0.9999883770942688, -0.999370276927948], "max": [0.9999772310256958, 0.9988332986831665, 0.9987509846687317]}, {"bufferView": 22, "componentType": 5126, "count": 7947, "type": "VEC3", "min": [0.0, 0.0, 0.0], "max": [1.0, 0.0, 0.0]}, {"bufferView": 23, "componentType": 5123, "count": 7947, "type": "SCALAR"}], "bufferViews": [{"buffer": 0, "byteOffset": 0, "byteLength": 75564, "target": 34962}, {"buffer": 0, "byteOffset": 75564, "byteLength": 75564, "target": 34962}, {"buffer": 0, "byteOffset": 151128, "byteLength": 75564, "target": 34962}, {"buffer": 0, "byteOffset": 226692, "byteLength": 12594, "target": 34963}, {"buffer": 0, "byteOffset": 239288, "byteLength": 7524, "target": 34962}, {"buffer": 0, "byteOffset": 246812, "byteLength": 7524, "target": 34962}, {"buffer": 0, "byteOffset": 254336, "byteLength": 7524, "target": 34962}, {"buffer": 0, "byteOffset": 261860, "byteLength": 1254, "target": 34963}, {"buffer": 0, "byteOffset": 263116, "byteLength": 78660, "target": 34962}, {"buffer": 0, "byteOffset": 341776, "byteLength": 78660, "target": 34962}, {"buffer": 0, "byteOffset": 420436, "byteLength": 78660, "target": 34962}, {"buffer": 0, "byteOffset": 499096, "byteLength": 13110, "target": 34963}, {"buffer": 0, "byteOffset": 512208, "byteLength": 9900, "target": 34962}, {"buffer": 0, "byteOffset": 522108, "byteLength": 9900, "target": 34962}, {"buffer": 0, "byteOffset": 532008, "byteLength": 9900, "target": 34962}, {"buffer": 0, "byteOffset": 541908, "byteLength": 1650, "target": 34963}, {"buffer": 0, "byteOffset": 543560, "byteLength": 89784, "target": 34962}, {"buffer": 0, "byteOffset": 633344, "byteLength": 89784, "target": 34962}, {"buffer": 0, "byteOffset": 723128, "byteLength": 89784, "target": 34962}, {"buffer": 0, "byteOffset": 812912, "byteLength": 14964, "target": 34963}, {"buffer": 0, "byteOffset": 827876, "byteLength": 95364, "target": 34962}, {"buffer": 0, "byteOffset": 923240, "byteLength": 95364, "target": 34962}, {"buffer": 0, "byteOffset": 1018604, "byteLength": 95364, "target": 34962}, {"buffer": 0, "byteOffset": 1113968, "byteLength": 15894, "target": 34963}], "buffers": [{"byteLength": 1129864, "uri": "plants.bin"}]}