{"asset": {"version": "2.0", "generator": "grass_lab export_walker.py"}, "scene": 0, "scenes": [{"nodes": [0, 1, 2, 3, 4, 5, 6, 7, 8, 9, 10]}], "nodes": [{"name": "GEO-Eye-RedLens", "mesh": 0}, {"name": "RIG-Body", "mesh": 1}, {"name": "RIG-Head", "mesh": 2}, {"name": "Shin-FrontL", "mesh": 3}, {"name": "Shin-FrontR", "mesh": 4}, {"name": "Shin-RearL", "mesh": 5}, {"name": "Shin-RearR", "mesh": 6}, {"name": "Thigh-FrontL", "mesh": 7}, {"name": "Thigh-FrontR", "mesh": 8}, {"name": "Thigh-RearL", "mesh": 9}, {"name": "Thigh-RearR", "mesh": 10}], "meshes": [{"name": "GEO-Eye-RedLens", "primitives": [{"attributes": {"POSITION": 0, "NORMAL": 1, "COLOR_0": 2}, "indices": 3, "mode": 4}]}, {"name": "RIG-Body", "primitives": [{"attributes": {"POSITION": 4, "NORMAL": 5, "COLOR_0": 6}, "indices": 7, "mode": 4}]}, {"name": "RIG-Head", "primitives": [{"attributes": {"POSITION": 8, "NORMAL": 9, "COLOR_0": 10}, "indices": 11, "mode": 4}]}, {"name": "Shin-FrontL", "primitives": [{"attributes": {"POSITION": 12, "NORMAL": 13, "COLOR_0": 14}, "indices": 15, "mode": 4}]}, {"name": "Shin-FrontR", "primitives": [{"attributes": {"POSITION": 16, "NORMAL": 17, "COLOR_0": 18}, "indices": 19, "mode": 4}]}, {"name": "Shin-RearL", "primitives": [{"attributes": {"POSITION": 20, "NORMAL": 21, "COLOR_0": 22}, "indices": 23, "mode": 4}]}, {"name": "Shin-RearR", "primitives": [{"attributes": {"POSITION": 24, "NORMAL": 25, "COLOR_0": 26}, "indices": 27, "mode": 4}]}, {"name": "Thigh-FrontL", "primitives": [{"attributes": {"POSITION": 28, "NORMAL": 29, "COLOR_0": 30}, "indices": 31, "mode": 4}]}, {"name": "Thigh-FrontR", "primitives": [{"attributes": {"POSITION": 32, "NORMAL": 33, "COLOR_0": 34}, "indices": 35, "mode": 4}]}, {"name": "Thigh-RearL", "primitives": [{"attributes": {"POSITION": 36, "NORMAL": 37, "COLOR_0": 38}, "indices": 39, "mode": 4}]}, {"name": "Thigh-RearR", "primitives": [{"attributes": {"POSITION": 40, "NORMAL": 41, "COLOR_0": 42}, "indices": 43, "mode": 4}]}], "accessors": [{"bufferView": 0, "componentType": 5126, "count": 36, "type": "VEC3", "min": [-0.17241375148296356, -0.18390804529190063, -0.010057320818305016], "max": [0.17241384088993073, 0.18390804529190063, 0.010057670995593071]}, {"bufferView": 1, "componentType": 5126, "count": 36, "type": "VEC3", "min": [-1.0, -1.0, -1.0], "max": [1.0, 1.0, 1.0]}, {"bufferView": 2, "componentType": 5126, "count": 36, "type": "VEC3", "min": [1.0, 0.3499999940395355, 0.25], "max": [1.0, 0.3499999940395355, 0.25]}, {"bufferView": 3, "componentType": 5123, "count": 36, "type": "SCALAR"}, {"bufferView": 4, "componentType": 5126, "count": 180, "type": "VEC3", "min": [-0.4655172526836395, -0.2614942789077759, -0.3275865912437439], "max": [0.4655173420906067, 0.3189655542373657, 0.32758593559265137]}, {"bufferView": 5, "componentType": 5126, "count": 180, "type": "VEC3", "min": [-1.0, -1.0, -1.0], "max": [1.0, 1.0, 1.0]}, {"bufferView": 6, "componentType": 5126, "count": 180, "type": "VEC3", "min": [0.0, 0.0, 0.0], "max": [0.0, 0.0, 0.0]}, {"bufferView": 7, "componentType": 5123, "count": 180, "type": "SCALAR"}, {"bufferView": 8, "componentType": 5126, "count": 498, "type": "VEC3", "min": [-0.7528737187385559, -0.3678160309791565, -1.2442526817321777], "max": [0.7528736591339111, 0.359195351600647, 0.24137982726097107]}, {"bufferView": 9, "componentType": 5126, "count": 498, "type": "VEC3", "min": [-1.0, -1.0, -1.0], "max": [1.0, 1.0, 1.0]}, {"bufferView": 10, "componentType": 5126, "count": 498, "type": "VEC3", "min": [0.0, 0.0, 0.0], "max": [0.0, 0.0, 0.0]}, {"bufferView": 11, "componentType": 5123, "count": 498, "type": "SCALAR"}, {"bufferView": 12, "componentType": 5126, "count": 108, "type": "VEC3", "min": [-1.2238943576812744, -5.367044195736526e-07, 0.6908524036407471], "max": [-0.6908517479896545, 1.0632187128067017, 1.2238945960998535]}, {"bufferView": 13, "componentType": 5126, "count": 108, "type": "VEC3", "min": [-0.7071080207824707, -1.0, -0.7071069478988647], "max": [0.7071070671081543, 0.9892246723175049, 0.7071074843406677]}, {"bufferView": 14, "componentType": 5126, "count": 108, "type": "VEC3", "min": [0.0, 0.0, 0.0], "max": [0.0, 0.0, 0.0]}, {"bufferView": 15, "componentType": 5123, "count": 108, "type": "SCALAR"}, {"bufferView": 16, "componentType": 5126, "count": 108, "type": "VEC3", "min": [0.690851092338562, 9.174759441066271e-08, 0.6908518075942993], "max": [1.2238940000534058, 1.063218355178833, 1.2238951921463013]}, {"bufferView": 17, "componentType": 5126, "count": 108, "type": "VEC3", "min": [-0.7071080207824707, -1.0, -0.7071067690849304], "max": [0.7071076035499573, 0.9892247319221497, 0.7071068286895752]}, {"bufferView": 18, "componentType": 5126, "count": 108, "type": "VEC3", "min": [0.0, 0.0, 0.0], "max": [0.0, 0.0, 0.0]}, {"bufferView": 19, "componentType": 5123, "count": 108, "type": "SCALAR"}, {"bufferView": 20, "componentType": 5126, "count": 108, "type": "VEC3", "min": [-1.2238951921463013, 4.968242137692869e-07, -1.223894476890564], "max": [-0.690852165222168, 1.063218593597412, -0.6908518075942993]}, {"bufferView": 21, "componentType": 5126, "count": 108, "type": "VEC3", "min": [-0.7071072459220886, -1.0, -0.7071066498756409], "max": [0.7071080207824707, 0.9892248511314392, 0.7071077823638916]}, {"bufferView": 22, "componentType": 5126, "count": 108, "type": "VEC3", "min": [0.0, 0.0, 0.0], "max": [0.0, 0.0, 0.0]}, {"bufferView": 23, "componentType": 5123, "count": 108, "type": "SCALAR"}, {"bufferView": 24, "componentType": 5126, "count": 108, "type": "VEC3", "min": [0.6908519268035889, 8.316112030115619e-07, -1.2238954305648804], "max": [1.2238943576812744, 1.063219428062439, -0.690852165222168]}, {"bufferView": 25, "componentType": 5126, "count": 108, "type": "VEC3", "min": [-0.7071078419685364, -1.0, -0.70710688829422], "max": [0.7071068286895752, 0.9892249703407288, 0.7071073651313782]}, {"bufferView": 26, "componentType": 5126, "count": 108, "type": "VEC3", "min": [0.0, 0.0, 0.0], "max": [0.0, 0.0, 0.0]}, {"bufferView": 27, "componentType": 5123, "count": 108, "type": "SCALAR"}, {"bufferView": 28, "componentType": 5126, "count": 180, "type": "VEC3", "min": [-1.2621350288391113, 0.6195788383483887, -0.014493713155388832], "max": [0.014494512230157852, 1.1735868453979492, 1.262135624885559]}, {"bufferView": 29, "componentType": 5126, "count": 180, "type": "VEC3", "min": [-0.70710688829422, -0.9825703501701355, -0.7071070075035095], "max": [0.7071068286895752, 0.9825703501701355, 0.7071069478988647]}, {"bufferView": 30, "componentType": 5126, "count": 180, "type": "VEC3", "min": [0.0, 0.0, 0.0], "max": [0.0, 0.0, 0.0]}, {"bufferView": 31, "componentType": 5123, "count": 180, "type": "SCALAR"}, {"bufferView": 32, "componentType": 5126, "count": 180, "type": "VEC3", "min": [-0.014494402334094048, 0.6195784211158752, -0.014493807218968868], "max": [1.2621347904205322, 1.173586368560791, 1.2621369361877441]}, {"bufferView": 33, "componentType": 5126, "count": 180, "type": "VEC3", "min": [-0.7071076035499573, -0.9825703501701355, -0.7071065902709961], "max": [0.7071071863174438, 0.9825703501701355, 0.7071065306663513]}, {"bufferView": 34, "componentType": 5126, "count": 180, "type": "VEC3", "min": [0.0, 0.0, 0.0], "max": [0.0, 0.0, 0.0]}, {"bufferView": 35, "componentType": 5123, "count": 180, "type": "SCALAR"}, {"bufferView": 36, "componentType": 5126, "count": 180, "type": "VEC3", "min": [-1.2621358633041382, 0.6195785999298096, -1.2621355056762695], "max": [0.014494255185127258, 1.1735868453979492, 0.014494328759610653]}, {"bufferView": 37, "componentType": 5126, "count": 180, "type": "VEC3", "min": [-0.7071068286895752, -0.9825703501701355, -0.7071069478988647], "max": [0.7071068286895752, 0.9825703501701355, 0.7071070671081543]}, {"bufferView": 38, "componentType": 5126, "count": 180, "type": "VEC3", "min": [0.0, 0.0, 0.0], "max": [0.0, 0.0, 0.0]}, {"bufferView": 39, "componentType": 5123, "count": 180, "type": "SCALAR"}, {"bufferView": 40, "componentType": 5126, "count": 180, "type": "VEC3", "min": [-0.014494256116449833, 0.6195788383483887, -1.2621361017227173], "max": [1.262135624885559, 1.1735870838165283, 0.014493563212454319]}, {"bufferView": 41, "componentType": 5126, "count": 180, "type": "VEC3", "min": [-0.7071069478988647, -0.9825702905654907, -0.7071070671081543], "max": [0.7071068286895752, 0.9825702905654907, 0.7071071267127991]}, {"bufferView": 42, "componentType": 5126, "count": 180, "type": "VEC3", "min": [0.0, 0.0, 0.0], "max": [0.0, 0.0, 0.0]}, {"bufferView": 43, "componentType": 5123, "count": 180, "type": "SCALAR"}], "bufferViews": [{"buffer": 0, "byteOffset": 0, "byteLength": 432}, {"buffer": 0, "byteOffset": 432, "byteLength": 432}, {"buffer": 0, "byteOffset": 864, "byteLength": 432}, {"buffer": 0, "byteOffset": 1296, "byteLength": 72}, {"buffer": 0, "byteOffset": 1368, "byteLength": 2160}, {"buffer": 0, "byteOffset": 3528, "byteLength": 2160}, {"buffer": 0, "byteOffset": 5688, "byteLength": 2160}, {"buffer": 0, "byteOffset": 7848, "byteLength": 360}, {"buffer": 0, "byteOffset": 8208, "byteLength": 5976}, {"buffer": 0, "byteOffset": 14184, "byteLength": 5976}, {"buffer": 0, "byteOffset": 20160, "byteLength": 5976}, {"buffer": 0, "byteOffset": 26136, "byteLength": 996}, {"buffer": 0, "byteOffset": 27132, "byteLength": 1296}, {"buffer": 0, "byteOffset": 28428, "byteLength": 1296}, {"buffer": 0, "byteOffset": 29724, "byteLength": 1296}, {"buffer": 0, "byteOffset": 31020, "byteLength": 216}, {"buffer": 0, "byteOffset": 31236, "byteLength": 1296}, {"buffer": 0, "byteOffset": 32532, "byteLength": 1296}, {"buffer": 0, "byteOffset": 33828, "byteLength": 1296}, {"buffer": 0, "byteOffset": 35124, "byteLength": 216}, {"buffer": 0, "byteOffset": 35340, "byteLength": 1296}, {"buffer": 0, "byteOffset": 36636, "byteLength": 1296}, {"buffer": 0, "byteOffset": 37932, "byteLength": 1296}, {"buffer": 0, "byteOffset": 39228, "byteLength": 216}, {"buffer": 0, "byteOffset": 39444, "byteLength": 1296}, {"buffer": 0, "byteOffset": 40740, "byteLength": 1296}, {"buffer": 0, "byteOffset": 42036, "byteLength": 1296}, {"buffer": 0, "byteOffset": 43332, "byteLength": 216}, {"buffer": 0, "byteOffset": 43548, "byteLength": 2160}, {"buffer": 0, "byteOffset": 45708, "byteLength": 2160}, {"buffer": 0, "byteOffset": 47868, "byteLength": 2160}, {"buffer": 0, "byteOffset": 50028, "byteLength": 360}, {"buffer": 0, "byteOffset": 50388, "byteLength": 2160}, {"buffer": 0, "byteOffset": 52548, "byteLength": 2160}, {"buffer": 0, "byteOffset": 54708, "byteLength": 2160}, {"buffer": 0, "byteOffset": 56868, "byteLength": 360}, {"buffer": 0, "byteOffset": 57228, "byteLength": 2160}, {"buffer": 0, "byteOffset": 59388, "byteLength": 2160}, {"buffer": 0, "byteOffset": 61548, "byteLength": 2160}, {"buffer": 0, "byteOffset": 63708, "byteLength": 360}, {"buffer": 0, "byteOffset": 64068, "byteLength": 2160}, {"buffer": 0, "byteOffset": 66228, "byteLength": 2160}, {"buffer": 0, "byteOffset": 68388, "byteLength": 2160}, {"buffer": 0, "byteOffset": 70548, "byteLength": 360}], "buffers": [{"byteLength": 70908, "uri": "walker_parts.bin"}]}